<?xml version="1.0" encoding="UTF-8"?>
<svg width="144px" height="144px" viewBox="0 0 144 144" version="1.1" xmlns="http://www.w3.org/2000/svg" xmlns:xlink="http://www.w3.org/1999/xlink">
    <title>Icons / Brand / Dotted Circle / Check</title>
    <g id="Page-1" stroke="none" stroke-width="1" fill="none" fill-rule="evenodd">
        <g id="Confirmation" transform="translate(-648.000000, -475.000000)" fill="#96A6BE" fill-rule="nonzero">
            <g id="Pop-up" transform="translate(470.000000, 284.000000)">
                <g id="Icons-/-Brand-/-Dotted-Circle-/-Check" transform="translate(178.000000, 191.000000)">
                    <path d="M80.1362979,2.42223984 L80.4432998,0.422776665 C81.7855486,0.540869382 83.1187052,0.746299418 84.4343239,1.03776534 C85.0835738,1.22672551 85.7546499,1.33009482 86.4305847,1.34525968 L88.2725959,1.80725117 L87.8113443,3.80671434 C87.2607604,3.64576265 86.6943537,3.54517482 86.1220853,3.50671987 C85.5228027,3.32978494 84.9042555,3.22652835 84.2800742,3.19922553 C82.7450649,2.89173119 81.5170575,2.58423686 80.1348004,2.4297397 L80.1362979,2.42223984 Z M98.8649086,7.34214922 C96.5616459,6.41966621 94.1056311,5.49718321 91.6496163,4.72769738 L92.26362,2.7282342 C94.8738845,3.49772003 97.3298993,4.42020304 99.7859142,5.34268605 L98.8649086,7.34214922 Z M68.6229796,2.1147455 L68.4732226,0.115282329 C71.1316925,-0.0384274429 73.796801,-0.0384274429 76.4552708,0.115282329 L76.3055138,2.1147455 C73.7494695,1.96093428 71.1865118,1.96093428 68.6304675,2.1147455 L68.6229796,2.1147455 Z M108.997467,12.5710529 C106.830753,11.1916637 104.574372,9.95893647 102.243427,8.88112088 L103.164432,7.03615486 C105.548047,8.16612179 107.85569,9.45031369 110.072723,10.8805841 L108.997467,12.5710529 Z M57.2624134,3.49922 L56.8011619,1.49975683 C59.3852788,0.940045663 61.9993443,0.52937766 64.6304579,0.269779483 L64.7802149,2.26924266 C62.3242001,2.57673699 59.7139355,3.03872848 57.2579207,3.49922 L57.2624134,3.49922 Z M118.36327,19.4904255 C116.367009,17.7984566 114.372246,16.1079878 112.37299,14.7235133 L113.600998,13.0315444 C115.750011,14.5690161 117.899024,16.260985 119.890792,17.9514538 L118.36327,19.4904255 Z M46.2118442,6.88165771 L45.4435908,5.03669169 C47.8957466,4.05594815 50.4083692,3.2342656 52.965885,2.57673699 L53.5798887,4.57620017 C51.0699204,5.16024989 48.6070454,5.93138365 46.2118442,6.88315768 L46.2118442,6.88165771 Z M126.346816,27.7927726 C124.657557,25.7933094 122.969796,23.9483434 121.127785,22.1033774 L122.510042,20.5659057 C124.352053,22.4108717 126.194064,24.4103349 127.883323,26.4157979 L126.346816,27.7927726 Z M35.770786,12.1135613 L34.6955308,10.4215925 C36.9673936,9.04054778 39.3259895,7.80800197 41.7565734,6.73166047 L42.677579,8.57662649 C40.2705304,9.53900758 37.9578496,10.7230634 35.7692885,12.1135613 L35.770786,12.1135613 Z M132.792357,37.4840941 C131.555664,35.2416042 130.170824,33.0843435 128.647084,31.026713 L130.336343,29.7967357 C131.871352,31.949196 133.253609,34.1016564 134.634369,36.4086139 L132.792357,37.4840941 Z M26.4064807,18.8844366 L25.0242236,17.346965 C27.0169412,15.6249733 29.1178495,14.0327359 31.3140177,12.5800528 L32.5420251,14.2720216 C30.3962592,15.6725142 28.345122,17.2133348 26.401988,18.8844366 L26.4064807,18.8844366 Z M137.704387,47.9449014 C136.839362,45.5216269 135.813741,43.158914 134.634369,40.8725317 L136.47638,39.9500487 C137.720189,42.2589504 138.747914,44.6782296 139.546398,47.1769155 L137.704387,47.9449014 Z M18.2716803,27.0247867 L16.7366711,25.6403122 C18.42593,23.640849 20.2679412,21.6428858 22.1099523,19.79042 L23.4922094,21.3278916 C21.8029504,23.1728577 19.9609393,25.1723208 18.2731779,27.0172868 L18.2716803,27.0247867 Z M140.772908,59.0071977 C140.304258,56.4623143 139.68923,53.9466705 138.930897,51.4728364 L140.927158,50.8578478 C141.703107,53.3786357 142.31835,55.9462617 142.769169,58.5452062 L140.772908,59.0071977 Z M11.6688941,36.563111 L9.82688298,35.4861309 C11.1683475,33.1891176 12.6554907,30.9806269 14.2791587,28.8742526 L15.9684176,30.10423 C14.3956078,32.1597385 12.9598184,34.3168774 11.6703917,36.5616111 L11.6688941,36.563111 Z M142.002413,70.5449852 C141.95046,67.9725874 141.745428,65.4055801 141.388409,62.8576267 L143.38467,62.5576323 C143.74172,65.1573678 143.946737,67.7757858 143.998674,70.3994878 L142.002413,70.5449852 Z M6.60261472,47.0194185 L4.60635389,46.2499326 C5.5233986,43.7734501 6.60043212,41.3593898 7.83062214,39.0230657 L9.67263327,39.9455487 C8.59737799,42.2525062 7.52362029,44.5579638 6.60261472,47.0179185 L6.60261472,47.0194185 Z M141.23416,82.0767728 C141.541162,79.4623209 141.848163,77.0023662 142.002413,74.3894144 L143.998674,74.3894144 C143.894837,77.0160905 143.638318,79.6344777 143.230421,82.2312699 L141.23416,82.0767728 Z M3.37834647,58.0907145 L1.38208563,57.628723 L1.38208563,57.4787258 C1.88436521,54.9267292 2.55118188,52.4100051 3.37834647,49.9443646 L5.37460731,50.5593533 C4.60635389,53.0193079 3.99235018,55.4792626 3.37834647,58.0937145 L3.37834647,58.0907145 Z M140.623151,94.064552 L138.62689,93.4495633 C139.395144,90.9896086 140.009147,88.5296539 140.623151,86.0696992 L140.623151,85.9122021 L142.619412,86.3741936 L142.619412,86.5241909 C142.005408,88.9841455 141.391405,91.5985974 140.623151,94.0585521 L140.623151,94.064552 Z M0.00132606883,69.465005 C0.105102329,66.8383247 0.36162167,64.219934 0.76957949,61.6231495 L2.76584033,61.9306438 C2.45883847,64.5450957 2.15183662,67.0050504 1.99758691,69.6180022 L0.00132606883,69.465005 Z M136.015128,105.137348 L134.173117,104.214865 C135.402677,101.931338 136.479793,99.5687043 137.397385,97.1424953 L139.393646,97.9119811 C138.318391,100.218939 137.244633,102.678893 136.016626,105.138848 L136.015128,105.137348 Z M0.615329778,81.302787 C0.258256447,78.703054 0.0532387489,76.0846347 0.00132606883,73.4609315 L1.99758691,73.4609315 C2.04955065,76.0333287 2.25458227,78.6003353 2.61159062,81.1482899 L0.615329778,81.302787 Z M129.720841,115.130164 L128.031582,113.900187 C129.587094,111.832338 131.022156,109.676292 132.329608,107.442806 L134.171619,108.519786 C132.789362,110.826743 131.254353,112.979204 129.719344,115.131664 L129.720841,115.130164 Z M3.07134461,92.9890718 C2.29542651,90.4682753 1.68018369,87.9006513 1.22933349,85.3017134 L3.22559433,84.994219 C3.69427085,87.5390968 4.30929859,90.0547391 5.06760545,92.5285803 L3.07134461,92.9890718 Z M121.738793,124.049 L120.356536,122.511528 C122.215907,120.728813 123.959165,118.828445 125.575568,116.822133 L127.110577,118.206607 C125.485826,120.303527 123.688439,122.260343 121.737296,124.0565 L121.738793,124.049 Z M7.52362029,104.061868 C6.27983436,101.752955 5.25211029,99.3336779 4.45360174,96.8350009 L6.44986258,96.0655151 C7.31491645,98.4887781 8.34053682,100.851489 9.51988113,103.137885 L7.52362029,104.061868 Z M112.52724,131.584861 L111.299233,129.892892 C113.448245,128.508418 115.444506,126.817949 117.43927,125.280477 L118.821527,126.817949 C116.825266,128.35542 114.676253,130.047389 112.531733,131.584861 L112.52724,131.584861 Z M13.6636574,114.209181 C12.1286481,112.056721 10.746391,109.749763 9.36563141,107.597303 L11.2076425,106.520323 C12.4443249,108.762819 13.8291649,110.920081 15.3529164,112.977704 L13.6636574,114.209181 Z M102.241929,137.427253 L101.320923,135.582287 C103.651869,134.504472 105.90825,133.271744 108.074964,131.892355 L109.15022,133.584324 C106.933189,135.014598 104.625546,136.29879 102.241929,137.428753 L102.241929,137.427253 Z M21.3402013,123.281014 C19.4981902,121.436048 17.6561791,119.436585 15.9669201,117.431122 L17.5019293,116.201144 C19.1911883,118.200607 20.8789497,120.045573 22.7209609,121.890539 L21.3402013,123.281014 Z M91.0356125,141.43068 L90.4216088,139.431216 C92.9217362,138.750269 95.3816374,137.928987 97.7896533,136.971262 L98.5579068,138.816228 C96.1353008,139.915596 93.6173813,140.790725 91.0356125,141.43068 L91.0356125,141.43068 Z M30.5517545,130.813875 C28.4027415,129.276403 26.2537285,127.584435 24.2619604,125.893966 L25.6442175,124.356494 C27.5342537,126.07555 29.5353504,127.667971 31.6344976,129.123406 L30.5517545,130.813875 Z M79.3725372,143.730137 L79.2227802,141.730674 C81.8028918,141.470978 84.3656208,141.060284 86.8978266,140.500697 L87.3590781,142.50016 C84.5960615,142.962151 81.9857969,143.422643 79.3770299,143.730137 L79.3725372,143.730137 Z M40.6873084,136.965262 C38.3037051,135.835272 35.9960634,134.551081 33.7790179,133.120833 L34.8542732,131.428864 C37.0209719,132.80828 39.2773541,134.041008 41.608314,135.118796 L40.6873084,136.965262 Z M67.3994649,143.884634 L67.5492219,141.885171 C70.1052677,142.038936 72.6682225,142.038936 75.2242683,141.885171 L75.3740253,143.884634 C72.715059,144.038455 70.0494457,144.038455 67.3904795,143.884634 L67.3994649,143.884634 Z M51.8891322,141.111185 C49.2788676,140.3417 46.8228528,139.419217 44.366838,138.496734 L45.1350914,136.651768 C47.4383541,137.574251 49.8943689,138.496734 52.3503837,139.266219 L51.8891322,141.111185 Z M56.1871581,140.187202 L58.0291693,140.649194 C58.6284552,140.826114 59.2470006,140.929371 59.8711804,140.956688 C61.0991878,141.106686 62.4814449,141.41868 63.7094524,141.571677 L63.4024505,143.57114 C62.4200446,143.451142 61.3389188,143.227466 60.317025,143.064461 L59.5641785,142.956151 C58.9124107,142.778835 58.2427611,142.675685 57.5679177,142.648657 L55.7259066,142.186666 L56.1871581,140.187202 Z M93.0218122,44.5 C94.2479372,44.5 95.4219114,44.9962171 96.2836279,45.8758658 L96.2836279,45.8758658 L102.161999,51.87184 C103.019659,52.7447812 103.5,53.9256825 103.5,55.1553412 C103.5,56.3849999 103.019659,57.5659012 102.162934,58.4378907 L102.162934,58.4378907 L64.2161044,97.1296084 C62.4172658,98.9567972 59.4956955,98.9567972 57.6948033,97.1275184 L57.6948033,97.1275184 L42.8380007,81.9774861 C41.9803413,81.1045448 41.5,79.9236436 41.5,78.6939849 C41.5,77.4643261 41.9803413,76.2834249 42.8368729,75.4116328 L42.8368729,75.4116328 L48.7159587,69.4149313 C49.5780886,68.5348608 50.7520628,68.0386437 51.9781878,68.0386437 C53.2043129,68.0386437 54.378287,68.5348608 55.2399729,69.4144782 L55.2399729,69.4144782 L60.956,75.245 L89.7595831,45.8762876 C90.5642377,45.0548885 91.6405432,44.5678683 92.7773595,44.5065829 L92.7773595,44.5065829 Z M93.0218122,47.5 C92.6042824,47.5 92.2020325,47.6700236 91.902037,47.9762615 L91.902037,47.9762615 L62.027409,78.4378818 C61.4392922,79.0375542 60.4734283,79.0374837 59.885399,78.4377254 L59.885399,78.4377254 L53.0973656,71.5142957 C52.7979675,71.2086673 52.3957176,71.0386437 51.9781878,71.0386437 C51.5606581,71.0386437 51.1584081,71.2086673 50.8585966,71.5147176 L50.8585966,71.5147176 L44.9779696,77.51299 C44.67299,77.8234038 44.5,78.2486932 44.5,78.6939849 C44.5,79.1392765 44.67299,79.5645659 44.9789591,79.8759877 L44.9789591,79.8759877 L59.8346975,95.024938 C60.4582856,95.658354 61.4546757,95.658354 62.0762654,95.0269718 L62.0762654,95.0269718 L100.02203,56.336336 C100.32701,56.0259222 100.5,55.6006328 100.5,55.1553412 C100.5,54.7100496 100.32701,54.2847602 100.020903,53.9731972 L100.020903,53.9731972 L94.14099,47.9756521 C93.8415919,47.6700236 93.4393419,47.5 93.0218122,47.5 Z" id="Combined-Shape"></path>
                </g>
            </g>
        </g>
    </g>
</svg>