<?xml version="1.0" encoding="UTF-8"?>
<svg width="144px" height="144px" viewBox="0 0 144 144" version="1.1" xmlns="http://www.w3.org/2000/svg" xmlns:xlink="http://www.w3.org/1999/xlink">
    <title>Icons / Brand / Dotted Circle / First Group</title>
    <g id="Page-1" stroke="none" stroke-width="1" fill="none" fill-rule="evenodd">
        <g id="New-group" transform="translate(-648.000000, -388.000000)" fill="#96A6BE" fill-rule="nonzero">
            <g id="Pop-up" transform="translate(470.000000, 284.000000)">
                <g id="Group-2" transform="translate(107.000000, 104.000000)">
                    <g id="Icons-/-Brand-/-Dotted-Circle-/-First-Group" transform="translate(71.000000, 0.000000)">
                        <path d="M75.2242683,141.885171 L75.3740253,143.884634 C72.715059,144.038455 70.0494457,144.038455 67.3904795,143.884634 L67.3994649,143.884634 L67.5492219,141.885171 C70.1052677,142.038936 72.6682225,142.038936 75.2242683,141.885171 Z M86.8978266,140.500697 L87.3590781,142.50016 C84.5960615,142.962151 81.9857969,143.422643 79.3770299,143.730137 L79.3725372,143.730137 L79.2227802,141.730674 C81.8028918,141.470978 84.3656208,141.060284 86.8978266,140.500697 Z M56.1871581,140.187202 L58.0291693,140.649194 C58.6284552,140.826114 59.2470006,140.929371 59.8711804,140.956688 C61.0991878,141.106686 62.4814449,141.41868 63.7094524,141.571677 L63.4024505,143.57114 C62.4200446,143.451142 61.3389188,143.227466 60.317025,143.064461 L59.5641785,142.956151 C58.9124107,142.778835 58.2427611,142.675685 57.5679177,142.648657 L55.7259066,142.186666 L56.1871581,140.187202 Z M97.7896533,136.971262 L98.5579068,138.816228 C96.1353008,139.915596 93.6173813,140.790725 91.0356125,141.43068 L90.4216088,139.431216 C92.9217362,138.750269 95.3816374,137.928987 97.7896533,136.971262 Z M45.1350914,136.651768 C47.4383541,137.574251 49.8943689,138.496734 52.3503837,139.266219 L51.8891322,141.111185 C49.2788676,140.3417 46.8228528,139.419217 44.366838,138.496734 L45.1350914,136.651768 Z M108.074964,131.892355 L109.15022,133.584324 C106.933189,135.014598 104.625546,136.29879 102.241929,137.428753 L102.241929,137.427253 L101.320923,135.582287 C103.651869,134.504472 105.90825,133.271744 108.074964,131.892355 Z M34.8542732,131.428864 C37.0209719,132.80828 39.2773541,134.041008 41.608314,135.118796 L40.6873084,136.965262 C38.3037051,135.835272 35.9960634,134.551081 33.7790179,133.120833 L34.8542732,131.428864 Z M117.43927,125.280477 L118.821527,126.817949 C116.825266,128.35542 114.676253,130.047389 112.531733,131.584861 L112.52724,131.584861 L111.299233,129.892892 C113.448245,128.508418 115.444506,126.817949 117.43927,125.280477 Z M25.6442175,124.356494 C27.5342537,126.07555 29.5353504,127.667971 31.6344976,129.123406 L30.5517545,130.813875 C28.4027415,129.276403 26.2537285,127.584435 24.2619604,125.893966 L25.6442175,124.356494 Z M125.575568,116.822133 L127.110577,118.206607 C125.485826,120.303527 123.688439,122.260343 121.737296,124.0565 L121.738793,124.049 L120.356536,122.511528 C122.215907,120.728813 123.959165,118.828445 125.575568,116.822133 Z M17.5019293,116.201144 C19.1911883,118.200607 20.8789497,120.045573 22.7209609,121.890539 L21.3402013,123.281014 C19.4981902,121.436048 17.6561791,119.436585 15.9669201,117.431122 L17.5019293,116.201144 Z M132.329608,107.442806 L134.171619,108.519786 C132.986828,110.497178 131.68981,112.361062 130.37676,114.208731 L129.720841,115.130164 L128.031582,113.900187 C129.587094,111.832338 131.022156,109.676292 132.329608,107.442806 Z M11.2076425,106.520323 C12.4443249,108.762819 13.8291649,110.920081 15.3529164,112.977704 L13.6636574,114.209181 C12.1286481,112.056721 10.746391,109.749763 9.36563141,107.597303 L11.2076425,106.520323 Z M137.397385,97.1424953 L139.393646,97.9119811 C138.318391,100.218939 137.244633,102.678893 136.016626,105.138848 L136.015128,105.137348 L134.173117,104.214865 C135.402677,101.931338 136.479793,99.5687043 137.397385,97.1424953 Z M6.44986258,96.0655151 C7.31491645,98.4887781 8.34053682,100.851489 9.51988113,103.137885 L7.52362029,104.061868 C6.27983436,101.752955 5.25211029,99.3336779 4.45360174,96.8350009 L6.44986258,96.0655151 Z M71.8850947,47.3336697 C73.7844665,47.3331243 75.6062327,48.0864563 76.9494855,49.4278863 C78.1894111,50.6661293 78.9278265,52.311809 79.0340921,54.049975 L79.0474131,54.486261 L79.0474131,62.7551492 C79.0506998,64.6546399 78.2974915,66.4774306 76.9538811,67.8215445 C76.7182325,68.0572815 76.467818,68.2748984 76.2048071,68.4734972 L76.2019319,69.725822 C76.2239952,69.8760893 76.2837988,70.0183266 76.3757643,70.1392664 L76.4409514,70.1971486 C76.4771665,70.2260897 76.5206246,70.2550308 76.5495967,70.2550308 C76.5949814,70.3010475 76.6592909,70.3232259 76.723429,70.3149803 L85.6220698,72.5240911 C87.9840403,73.0605975 89.7909522,74.9345643 90.2388959,77.2980564 L91.8004063,85.2754348 C92.6791449,89.6748128 92.8778212,90.4664813 92.9443898,90.9702551 L92.9532521,91.0423083 L92.9532521,91.0423083 L92.9606098,91.1125632 C92.961732,91.124251 92.9628073,91.1359601 92.9638438,91.1477389 L92.9767557,91.324158 L92.9767557,91.9050474 C92.7729841,93.6219127 91.2919107,94.8786807 89.5926924,94.8351373 L89.3076511,94.8156961 L66.4135139,94.8156961 C65.9362527,94.8037309 65.5521911,94.4200797 65.5402132,93.9433284 C65.5277851,93.5012185 65.8341941,93.1235053 66.2520141,93.0316323 L66.4135139,93.0110112 L83.0145053,93.0110112 L83.0145053,84.4547791 C83.0264833,83.9780278 83.4105448,83.5943766 83.8878061,83.5824114 C84.1207841,83.5778691 84.3455633,83.6683196 84.510335,83.8329152 C84.6339138,83.956362 84.7157413,84.1135269 84.7470131,84.2825766 L84.7611068,84.4547791 L84.7611068,93.0110112 L89.2455681,93.0110112 C90.3255164,93.0110112 91.0057686,92.6598682 91.0974376,91.6315209 L91.098751,91.11502 C91.0793618,90.9107338 91.0195787,90.5885444 90.8352474,89.6570705 L90.7966955,89.4625063 C90.4745966,87.8386732 89.8192921,84.5712093 88.4860862,77.6474169 C88.1949114,76.058517 87.0248532,74.7848499 85.4872608,74.3477537 L85.1749934,74.2716433 L79.8731061,72.9320834 L77.8926587,72.4669584 L76.3493716,72.0984062 L76.7095134,75.2537197 C76.7095134,75.3681222 76.6509502,75.4845676 76.5338239,75.4845676 L71.6830997,77.5776694 L71.6832284,89.3027971 L71.6691347,89.4749997 C71.637863,89.6440493 71.5560355,89.8012143 71.4324567,89.924661 C71.267685,90.0892567 71.0429057,90.1797072 70.8099277,90.1751648 C70.3693789,90.1641201 70.0082428,89.8363724 69.9458692,89.4110372 L69.936627,89.3027971 L69.9360997,77.4696694 L65.1704745,75.5397259 C65.0838104,75.4810436 65.0241317,75.3934107 65.0010831,75.2953399 L64.9906018,75.1944755 L65.353015,72.0924234 L63.7936117,72.4752273 L56.6106098,74.3522649 L55.971155,74.5259116 C54.5693239,75.0526686 53.5357962,76.2606743 53.2332952,77.7259713 L50.6324468,91.1043708 C50.6148954,91.2302185 50.6119276,91.304461 50.6114257,91.3994293 L50.6113236,91.4605947 C50.6113236,92.5912175 51.1626902,93.0284666 52.2206871,93.0851623 L52.4738133,93.0916329 L57.0265658,93.0916329 L56.9686217,90.1809842 C56.9778092,89.6603536 57.3821619,89.2322514 57.901936,89.1928521 C58.3525417,89.2344193 58.7050357,89.581231 58.7662938,90.014769 L58.7752367,90.1809842 L58.7752367,93.0916329 L62.1546208,93.0916329 C62.631882,93.103598 63.0159436,93.4872493 63.0279215,93.9640006 C63.0403319,94.4057861 62.7336801,94.7829912 62.3160344,94.8739793 L62.1546208,94.8942505 L52.4282857,94.8942505 C51.9979688,94.915967 51.5667353,94.8769956 51.1473067,94.7784861 C49.4399714,94.3207305 48.390605,92.6354917 48.6956755,90.92853 L51.3811527,77.3187286 C51.74602,75.3443385 53.0781406,73.6952666 54.9109943,72.9151222 L55.2841033,72.7708401 L55.3420474,72.7708401 L56.0415157,72.5393112 L56.0994599,72.5393112 L65.0704519,70.2653669 L65.1626412,70.1994328 C65.2699862,70.1151528 65.4379542,69.9574895 65.4796566,69.7700292 L65.4843385,69.6245281 L65.482017,69.049846 C64.8847275,68.7251124 64.3316018,68.3142222 63.8420556,67.8251989 C62.6011383,66.5856074 61.8627916,64.9379312 61.7578375,63.1980573 L61.7448704,62.7613509 L61.7448704,54.4924626 C61.7432239,52.5933289 62.4977285,50.7715054 63.8420556,49.4286146 C65.0829729,48.1890231 66.7324113,47.4514652 68.474146,47.3466233 L68.9113195,47.3336697 L71.8850947,47.3336697 Z M43.6916101,57.7362094 L44.033176,57.7463329 C45.3940018,57.8282464 46.6827161,58.404504 47.6522509,59.3730029 C48.7025802,60.42221 49.2920783,61.8456097 49.2907919,63.3294121 L49.2907919,63.3294121 L49.2907919,69.7899349 L49.2806606,70.1311358 C49.1986594,71.4905078 48.6217856,72.7778453 47.6522509,73.7463442 C47.269766,74.1284205 46.8376062,74.449451 46.3709409,74.7031669 L46.3709409,74.7031669 L46.3691272,75.1521689 L46.3727851,75.2658496 C46.4053674,75.4123132 46.5366016,75.5354964 46.6204708,75.6013447 L46.6204708,75.6013447 L46.6924988,75.6528594 L50.5239598,76.6542313 L50.2582004,78.0505213 L47.6901003,77.3794341 L46.4717309,77.0803476 L46.754886,79.503996 L46.746697,79.5828019 C46.728689,79.659425 46.6820617,79.727893 46.6143507,79.7737419 L46.6143507,79.7737419 L42.8909598,81.2702092 L42.8905324,90.5268967 L42.8809361,90.6265174 C42.8260141,90.9514846 42.547206,91.1999833 42.2082183,91.2084819 C42.0261914,91.2120308 41.8505703,91.1413614 41.7218333,91.012762 C41.6252806,90.9163125 41.5613484,90.7935187 41.5369156,90.6614394 L41.5369156,90.6614394 L41.5259041,90.5268967 L41.5259598,81.3662092 L37.7361102,79.7306464 C37.6445988,79.7306464 37.5988431,79.639667 37.5988431,79.5502838 L37.5988431,79.5502838 L37.8802236,77.0850219 L36.6744459,77.3729736 L35.1271127,77.736378 L30.9847222,78.7829827 L30.7407462,78.8424482 C29.5394177,79.1839535 28.6252455,80.1790758 28.3977492,81.4204911 C27.3828177,86.6913765 26.8707205,89.2501741 26.6123351,90.5515259 L26.6123351,90.5515259 L26.5557599,90.8369448 C26.4168894,91.539181 26.3713772,91.785641 26.3564614,91.9427953 L26.3564614,91.9427953 L26.3574876,92.34634 C26.429109,93.1497928 26.9605934,93.4241425 27.8043623,93.4241425 L27.8043623,93.4241425 L31.3080939,93.4241425 L31.3080939,86.7391165 L31.3191053,86.6045738 C31.3435381,86.4724945 31.4074703,86.3497008 31.504023,86.2532512 C31.63276,86.1246518 31.8083811,86.0539824 31.990408,86.0575314 C32.3632945,86.0668798 32.6633637,86.3666284 32.6727221,86.7391165 L32.6727221,86.7391165 L32.6727221,93.4241425 L45.6431579,93.4241425 L45.7693385,93.4402539 C46.0957833,93.5120347 46.3351821,93.8071439 46.325472,94.1525664 C46.3161136,94.5250546 46.0160444,94.8248032 45.6431579,94.8341516 L45.6431579,94.8341516 L27.7558566,94.8341516 L27.5331524,94.8493411 C26.2055448,94.8833618 25.0483749,93.9014428 24.8891671,92.5600476 L24.8891671,92.5600476 L24.8891671,92.1061958 L24.8992553,91.9683587 C24.9031765,91.9237978 24.9078092,91.8805115 24.9138585,91.8342273 L24.924083,91.7620184 C24.9852208,91.3592155 25.1595895,90.6278214 25.8082547,87.3802988 L25.8082547,87.3802988 L27.0282704,81.147534 C27.378251,79.3009261 28.7900001,77.8367867 30.6354193,77.4176116 L30.6354193,77.4176116 L37.5879708,75.6916225 C37.6380822,75.6980649 37.6883276,75.6807368 37.7237868,75.6447837 C37.7464229,75.6447837 37.7803769,75.6221719 37.8086719,75.5995601 L37.8086719,75.5995601 L37.8596029,75.5543364 C37.9314561,75.4598456 37.9781809,75.3487149 37.995419,75.2313103 L37.995419,75.2313103 L37.9931726,74.2528628 C37.7876809,74.0976966 37.5920308,73.9276714 37.4079174,73.743489 C36.358148,72.6933262 35.7696627,71.269171 35.7722307,69.7850896 L35.7722307,69.7850896 L35.7722307,63.3245667 L35.7826384,62.9836943 C35.8656642,61.6256568 36.4425918,60.3398792 37.4113518,59.3724338 C38.4608417,58.3243681 39.8841966,57.7357861 41.368185,57.7362094 L41.368185,57.7362094 L43.6916101,57.7362094 Z M100.411557,57.7362094 C101.895545,57.7357861 103.3189,58.3243681 104.36839,59.3724338 C105.33715,60.3398792 105.914078,61.6256568 105.997103,62.9836943 L106.007511,63.3245667 L106.007511,69.7850896 C106.010079,71.269171 105.421594,72.6933262 104.371824,73.743489 C104.187711,73.9276714 103.992061,74.0976966 103.786569,74.2528628 L103.784323,75.2313103 C103.801561,75.3487149 103.848286,75.4598456 103.920139,75.5543364 L103.97107,75.5995601 C103.999365,75.6221719 104.033319,75.6447837 104.055955,75.6447837 C104.091414,75.6807368 104.14166,75.6980649 104.191771,75.6916225 L111.144323,77.4176116 C112.989742,77.8367867 114.401491,79.3009261 114.751471,81.147534 L115.971487,87.3802988 C116.620152,90.6278214 116.794521,91.3592155 116.855659,91.7620184 L116.865883,91.8342273 C116.871933,91.8805115 116.876565,91.9237978 116.880487,91.9683587 L116.890575,92.1061958 L116.890575,92.5600476 C116.731367,93.9014428 115.574197,94.8833618 114.246589,94.8493411 L114.023885,94.8341516 L96.136584,94.8341516 C95.7636974,94.8248032 95.4636283,94.5250546 95.4542698,94.1525664 C95.4445597,93.8071439 95.6839585,93.5120347 96.0104034,93.4402539 L96.136584,93.4241425 L109.10702,93.4241425 L109.10702,86.7391165 C109.116378,86.3666284 109.416447,86.0668798 109.789334,86.0575314 C109.971361,86.0539824 110.146982,86.1246518 110.275719,86.2532512 C110.372272,86.3497008 110.436204,86.4724945 110.460637,86.6045738 L110.471648,86.7391165 L110.471648,93.4241425 L113.97538,93.4241425 C114.819148,93.4241425 115.350633,93.1497928 115.422254,92.34634 L115.42328,91.9427953 C115.408365,91.785641 115.362852,91.539181 115.223982,90.8369448 L115.167407,90.5515259 C114.909021,89.2501741 114.396924,86.6913765 113.381993,81.4204911 C113.154496,80.1790758 112.240324,79.1839535 111.038996,78.8424482 L110.79502,78.7829827 L106.652629,77.736378 L105.105296,77.3729736 L103.899518,77.0850219 L104.180899,79.5502838 C104.180899,79.639667 104.135143,79.7306464 104.043632,79.7306464 L100.253782,81.3662092 L100.253838,90.5268967 L100.242826,90.6614394 C100.218393,90.7935187 100.154461,90.9163125 100.057909,91.012762 C99.9291716,91.1413614 99.7535504,91.2120308 99.5715236,91.2084819 C99.2325358,91.1999833 98.9537277,90.9514846 98.8988058,90.6265174 L98.8892095,90.5268967 L98.888782,81.2702092 L95.1653912,79.7737419 C95.0976801,79.727893 95.0510528,79.659425 95.0330449,79.5828019 L95.0248558,79.503996 L95.308011,77.0803476 L94.0896416,77.3794341 L91.5215414,78.0505213 L91.255782,76.6542313 L95.087243,75.6528594 L95.159271,75.6013447 C95.2431402,75.5354964 95.3743744,75.4123132 95.4069567,75.2658496 L95.4106147,75.1521689 L95.4088009,74.7031669 C94.9421357,74.449451 94.5099759,74.1284205 94.127491,73.7463442 C93.1579562,72.7778453 92.5810824,71.4905078 92.4990812,70.1311358 L92.4889499,69.7899349 L92.4889499,63.3294121 C92.4876636,61.8456097 93.0771617,60.42221 94.127491,59.3730029 C95.0970257,58.404504 96.3857401,57.8282464 97.7465659,57.7463329 L98.0881317,57.7362094 L100.411557,57.7362094 Z M140.623151,85.9122021 L142.619412,86.3741936 L142.619412,86.5241909 C142.005408,88.9841455 141.391405,91.5985974 140.623151,94.0585521 L140.623151,94.064552 L138.62689,93.4495633 C139.395144,90.9896086 140.009147,88.5296539 140.623151,86.0696992 L140.623151,85.9122021 Z M3.22559433,84.994219 C3.69427085,87.5390968 4.30929859,90.0547391 5.06760545,92.5285803 L3.07134461,92.9890718 C2.29542651,90.4682753 1.68018369,87.9006513 1.22933349,85.3017134 L3.22559433,84.994219 Z M143.998674,74.3894144 C143.894837,77.0160905 143.638318,79.6344777 143.230421,82.2312699 L141.23416,82.0767728 C141.541162,79.4623209 141.848163,77.0023662 142.002413,74.3894144 L143.998674,74.3894144 Z M1.99758691,73.4609315 C2.04955065,76.0333287 2.25458227,78.6003353 2.61159062,81.1482899 L0.615329778,81.302787 C0.258256447,78.703054 0.0532387489,76.0846347 0.00132606883,73.4609315 L1.99758691,73.4609315 Z M103.187455,77.049185 L100.625895,80.3165755 L103.308272,79.2358463 C103.399784,79.1911547 103.445539,79.1464631 103.399784,79.0554837 L103.187455,77.049185 Z M38.5922873,77.049185 L38.3799583,79.0554837 C38.3342026,79.1464631 38.3799583,79.1911547 38.4714697,79.2358463 L38.4714697,79.2358463 L41.1538466,80.3165755 L38.5922873,77.049185 Z M96.0278652,77.0896963 L95.8206782,78.9166205 C95.8051394,79.0253047 95.8515474,79.1311533 95.9372821,79.1957417 L96.0086034,79.2358463 L98.657982,80.2807386 L96.0278652,77.0896963 Z M45.7518766,77.0896963 L43.1217598,80.2807386 L45.7711384,79.2358463 L45.8424597,79.1957417 C45.9281944,79.1311533 45.9746025,79.0253047 45.9590636,78.9166205 L45.9590636,78.9166205 L45.7518766,77.0896963 Z M102.467863,74.9925674 C101.923571,75.2072703 101.34523,75.3368264 100.753181,75.3728135 L100.411557,75.3831347 L98.0881317,75.3831347 C97.6103141,75.383548 97.1387535,75.3228941 96.683906,75.205494 L96.6846989,76.1971584 C96.6839663,76.2237407 96.6817891,76.2500171 96.6782356,76.2759027 L99.6894615,80.0127409 L102.504676,76.3404029 C102.478794,75.9688989 102.469782,75.5997754 102.466643,75.231071 L102.467863,74.9925674 Z M39.3118784,74.9925674 L39.3130985,75.231071 C39.3099601,75.5997754 39.3009474,75.9688989 39.2750656,76.3404029 L39.2750656,76.3404029 L42.0902803,80.0127409 L45.1015063,76.2759027 C45.0979527,76.2500171 45.0957756,76.2237407 45.095043,76.1971584 L45.095043,76.1971584 L45.0958358,75.205494 C44.6409883,75.3228941 44.1694277,75.383548 43.6916101,75.3831347 L43.6916101,75.3831347 L41.368185,75.3831347 L41.026561,75.3728135 C40.4345122,75.3368264 39.8561704,75.2072703 39.3118784,74.9925674 L39.3118784,74.9925674 Z M75.4379942,72.0525382 L72.1594287,76.2345041 L75.5926298,74.851268 C75.7097562,74.7940668 75.7683194,74.7368655 75.7097562,74.6204201 L75.4379942,72.0525382 Z M66.2743637,72.104389 L66.0091829,74.4426877 C65.9892946,74.5817937 66.0486928,74.7172704 66.1584254,74.7999377 L66.2497103,74.851268 L69.6406767,76.1886361 L66.2743637,72.104389 Z M74.5169823,69.4202525 C73.8203374,69.695053 73.080112,69.8608732 72.3223428,69.9069333 L71.8850947,69.9201435 L68.9113195,69.9201435 C68.299756,69.9206726 67.6962008,69.8430411 67.1140369,69.6927795 L67.1150517,70.9620208 C67.114114,70.9960436 67.1113275,71.0296751 67.1067792,71.0628064 L70.9608777,75.8456232 L74.5640994,71.1453608 C74.5309729,70.6698691 74.5194376,70.1974242 74.5154207,69.7255157 L74.5169823,69.4202525 Z M43.192001,58.6455077 L41.8257559,58.6455077 C40.4847797,58.6425224 39.1978585,59.1733214 38.2496428,60.120524 C37.301427,61.0677267 36.7700604,62.353273 36.7730743,63.6928165 L36.7730743,63.6928165 L36.7714447,69.4669088 L36.781759,69.8005052 C36.8598994,71.0183604 37.3788281,72.1709322 38.2480259,73.0392013 C39.1962416,73.986404 40.4831629,74.517203 41.824139,74.5142176 L41.824139,74.5142176 L43.1903841,74.5142176 L43.5243373,74.5039016 C44.743495,74.4258448 45.8972995,73.9074704 46.7664973,73.0392013 C47.714713,72.0919986 48.2460797,70.8064523 48.2430911,69.4669088 L48.2430911,69.4669088 L48.2430911,63.6928165 L48.2327683,63.3592895 C48.1546601,62.141685 47.6359443,60.9893235 46.7670677,60.1210973 C45.8192022,59.1739414 44.5326973,58.6429526 43.192001,58.6455077 L43.192001,58.6455077 Z M99.953986,58.6455077 L98.5877409,58.6455077 C97.2470446,58.6429526 95.9605397,59.1739414 95.0126742,60.1210973 C94.1437975,60.9893235 93.6250818,62.141685 93.5469735,63.3592895 L93.5366507,63.6928165 L93.5366507,69.4669088 C93.5336622,70.8064523 94.0650288,72.0919986 95.0132446,73.0392013 C95.8824423,73.9074704 97.0362468,74.4258448 98.2554045,74.5039016 L98.5893577,74.5142176 L99.9556028,74.5142176 C101.296579,74.517203 102.5835,73.986404 103.531716,73.0392013 C104.400914,72.1709322 104.919842,71.0183604 104.997983,69.8005052 L105.008297,69.4669088 L105.006668,63.6928165 C105.009681,62.353273 104.478315,61.0677267 103.530099,60.120524 C102.581883,59.1733214 101.294962,58.6425224 99.953986,58.6455077 Z M143.38467,62.5576323 C143.74172,65.1573678 143.946737,67.7757858 143.998674,70.3994878 L142.002413,70.5449852 C141.95046,67.9725874 141.745428,65.4055801 141.388409,62.8576267 L143.38467,62.5576323 Z M0.76957949,61.6231495 L2.76584033,61.9306438 C2.45883847,64.5450957 2.15183662,67.0050504 1.99758691,69.6180022 L0.00132606883,69.465005 C0.105102329,66.8383247 0.36162167,64.219934 0.76957949,61.6231495 Z M71.2994452,48.4974862 L69.5507743,48.4974862 C67.8348036,48.4942158 66.188193,49.1738338 64.9750104,50.3861082 C63.8629264,51.4973597 63.1990169,52.9722788 63.0990454,54.5307029 L63.0858331,54.9575876 L63.0858331,62.3479065 C63.0820081,64.0624017 63.7621096,65.7077853 64.9757405,66.9201196 C66.0882355,68.031426 67.5650014,68.6948985 69.1254137,68.7948043 L69.5528437,68.8080078 L71.3015146,68.8080078 C73.0178435,68.8118288 74.664987,68.1324539 75.8786178,66.9201196 C76.9911128,65.8088132 77.6552949,64.333625 77.7553076,62.7748798 L77.768509,62.3479065 L77.7664233,54.9575876 C77.7702808,53.2430924 77.0901793,51.5977087 75.8765484,50.3853744 C74.6629175,49.1730402 73.0157741,48.4936652 71.2994452,48.4974862 Z M140.927158,50.8578478 C141.703107,53.3786357 142.31835,55.9462617 142.769169,58.5452062 L140.772908,59.0071977 C140.304258,56.4623143 139.68923,53.9466705 138.930897,51.4728364 L140.927158,50.8578478 Z M3.37834647,49.9443646 L5.37460731,50.5593533 C4.60635389,53.0193079 3.99235018,55.4792626 3.37834647,58.0937145 L3.37834647,58.0907145 L1.38208563,57.628723 L1.38208563,57.4787258 C1.88436521,54.9267292 2.55118188,52.4100051 3.37834647,49.9443646 Z M136.47638,39.9500487 C137.720189,42.2589504 138.747914,44.6782296 139.546398,47.1769155 L137.704387,47.9449014 C136.839362,45.5216269 135.813741,43.158914 134.634369,40.8725317 L136.47638,39.9500487 Z M7.83062214,39.0230657 L9.67263327,39.9455487 C8.59737799,42.2525062 7.52362029,44.5579638 6.60261472,47.0179185 L6.60261472,47.0194185 L4.60635389,46.2499326 C5.5233986,43.7734501 6.60043212,41.3593898 7.83062214,39.0230657 Z M130.336343,29.7967357 C131.871352,31.949196 133.253609,34.1016564 134.634369,36.4086139 L132.792357,37.4840941 C131.555664,35.2416042 130.170824,33.0843435 128.647084,31.026713 L130.336343,29.7967357 Z M14.2791587,28.8742526 L15.9684176,30.10423 C14.3956078,32.1597385 12.9598184,34.3168774 11.6703917,36.5616111 L11.6688941,36.563111 L9.82688298,35.4861309 C11.1683475,33.1891176 12.6554907,30.9806269 14.2791587,28.8742526 Z M122.510042,20.5659057 C124.352053,22.4108717 126.194064,24.4103349 127.883323,26.4157979 L126.346816,27.7927726 C124.657557,25.7933094 122.969796,23.9483434 121.127785,22.1033774 L122.510042,20.5659057 Z M22.1099523,19.79042 L23.4922094,21.3278916 C21.8029504,23.1728577 19.9609393,25.1723208 18.2731779,27.0172868 L18.2716803,27.0247867 L16.7366711,25.6403122 C18.42593,23.640849 20.2679412,21.6428858 22.1099523,19.79042 Z M113.600998,13.0315444 C115.750011,14.5690161 117.899024,16.260985 119.890792,17.9514538 L118.36327,19.4904255 C116.367009,17.7984566 114.372246,16.1079878 112.37299,14.7235133 L113.600998,13.0315444 Z M31.3140177,12.5800528 L32.5420251,14.2720216 C30.6644799,15.4974526 28.8593849,16.8303223 27.1356998,18.2639 L26.4043261,18.882 L25.0242236,17.346965 C27.0169412,15.6249733 29.1178495,14.0327359 31.3140177,12.5800528 Z M103.164432,7.03615486 C105.548047,8.16612179 107.85569,9.45031369 110.072723,10.8805841 L108.997467,12.5710529 C106.830753,11.1916637 104.574372,9.95893647 102.243427,8.88112088 L103.164432,7.03615486 Z M41.7565734,6.73166047 L42.677579,8.57662649 C40.5379802,9.43207635 38.4729437,10.4626766 36.503365,11.6577289 L35.7693261,12.112 L34.6955308,10.4215925 C36.9673936,9.04054778 39.3259895,7.80800197 41.7565734,6.73166047 Z M92.26362,2.7282342 C94.8738845,3.49772003 97.3298993,4.42020304 99.7859142,5.34268605 L98.8649086,7.34214922 C96.5616459,6.41966621 94.1056311,5.49718321 91.6496163,4.72769738 L92.26362,2.7282342 Z M52.965885,2.57673699 L53.5798887,4.57620017 C51.0699204,5.16024989 48.6070454,5.93138365 46.2118442,6.88315768 L46.2118442,6.88165771 L45.4435908,5.03669169 C47.8957466,4.05594815 50.4083692,3.2342656 52.965885,2.57673699 Z M80.4432998,0.422776665 C81.7855486,0.540869382 83.1187052,0.746299418 84.4343239,1.03776534 C85.0835738,1.22672551 85.7546499,1.33009482 86.4305847,1.34525968 L88.2725959,1.80725117 L87.8113443,3.80671434 C87.2607604,3.64576265 86.6943537,3.54517482 86.1220853,3.50671987 C85.5228027,3.32978494 84.9042555,3.22652835 84.2800742,3.19922553 C82.7450649,2.89173119 81.5170575,2.58423686 80.1348004,2.4297397 L80.1362979,2.42223984 L80.4432998,0.422776665 Z M64.6304579,0.269779483 L64.7802149,2.26924266 C62.7335359,2.52548794 60.579739,2.88902291 58.497354,3.26957146 L57.2623261,3.498 L56.8011619,1.49975683 C59.3852788,0.940045663 61.9993443,0.52937766 64.6304579,0.269779483 Z M76.4552708,0.115282329 L76.3055138,2.1147455 C73.7494695,1.96093428 71.1865118,1.96093428 68.6304675,2.1147455 L68.6229796,2.1147455 L68.4732226,0.115282329 C71.1316925,-0.0384274429 73.796801,-0.0384274429 76.4552708,0.115282329 Z" id="Combined-Shape"></path>
                    </g>
                </g>
            </g>
        </g>
    </g>
</svg>