<?xml version="1.0" encoding="UTF-8"?>
<svg width="18px" height="18px" viewBox="0 0 18 18" version="1.1" xmlns="http://www.w3.org/2000/svg" xmlns:xlink="http://www.w3.org/1999/xlink">
    <title>Icons / Search</title>
    <g id="Page-1" stroke="none" stroke-width="1" fill="none" fill-rule="evenodd">
        <g id="Selected-members" transform="translate(-505.000000, -373.000000)" fill="#517EB9" fill-rule="nonzero">
            <g id="Pop-up" transform="translate(470.000000, 284.000000)">
                <g id="Atoms/Form-Input/:value" transform="translate(20.000000, 74.000000)">
                    <g id="Icons-/-Search" transform="translate(14.000000, 14.000000)">
                        <path d="M8.95833333,1.66666667 C12.9854096,1.66666667 16.25,4.93125703 16.25,8.95833333 C16.25,10.8469101 15.5320102,12.5677913 14.354102,13.8629058 L18.2316343,17.7405879 C18.367233,17.8761866 18.367233,18.0960356 18.2316343,18.2316343 C18.1014595,18.3618091 17.8936398,18.3670161 17.7572534,18.2472553 L17.7405879,18.2316343 L13.8629058,14.354102 C12.5677913,15.5320102 10.8469101,16.25 8.95833333,16.25 C4.93125703,16.25 1.66666667,12.9854096 1.66666667,8.95833333 C1.66666667,4.93125703 4.93125703,1.66666667 8.95833333,1.66666667 Z M8.95833333,2.36111111 C5.31478811,2.36111111 2.36111111,5.31478811 2.36111111,8.95833333 C2.36111111,12.6018786 5.31478811,15.5555556 8.95833333,15.5555556 C12.6018786,15.5555556 15.5555556,12.6018786 15.5555556,8.95833333 C15.5555556,5.31478811 12.6018786,2.36111111 8.95833333,2.36111111 Z" id="Combined-Shape"></path>
                    </g>
                </g>
            </g>
        </g>
    </g>
</svg>